<svg xmlns="http://www.w3.org/2000/svg" xmlns:xlink="http://www.w3.org/1999/xlink" id="body_2" preserveAspectRatio="xMinYMin meet" viewBox="0 0 793 1121"><defs><clipPath id="1"><path d="M0 841L0 -0.9199829L0 -0.9199829L595.32 -0.9199829L595.32 -0.9199829L595.32 841L595.32 841L0 841z" /></clipPath><clipPath id="2"><path d="M8.871E-06 841L595.32 841L595.32 841L595.32 -0.9199829L595.32 -0.9199829L8.871E-06 -0.9199829z" /></clipPath><clipPath id="3"><path d="M8.871E-06 841L595.32 841L595.32 841L595.32 -0.9199829L595.32 -0.9199829L8.871E-06 -0.9199829z" /></clipPath><clipPath id="4"><path d="M8.871E-06 841L595.32 841L595.32 841L595.32 -0.9199829L595.32 -0.9199829L8.871E-06 -0.9199829z" /></clipPath><clipPath id="5"><path d="M8.871E-06 841L595.32 841L595.32 841L595.32 -0.9199829L595.32 -0.9199829L8.871E-06 -0.9199829z" /></clipPath><clipPath id="6"><path d="M8.871E-06 841L595.32 841L595.32 841L595.32 -0.9199829L595.32 -0.9199829L8.871E-06 -0.9199829z" /></clipPath><clipPath id="7"><path d="M8.871E-06 841L595.32 841L595.32 841L595.32 -0.9199829L595.32 -0.9199829L8.871E-06 -0.9199829z" /></clipPath><clipPath id="8"><path d="M8.871E-06 841L595.32 841L595.32 841L595.32 -0.9199829L595.32 -0.9199829L8.871E-06 -0.9199829z" /></clipPath><clipPath id="9"><path d="M8.871E-06 841L595.32 841L595.32 841L595.32 -0.9199829L595.32 -0.9199829L8.871E-06 -0.9199829z" /></clipPath><clipPath id="10"><path d="M8.871E-06 841L595.32 841L595.32 841L595.32 -0.9199829L595.32 -0.9199829L8.871E-06 -0.9199829z" /></clipPath><clipPath id="11"><path d="M8.871E-06 841L595.32 841L595.32 841L595.32 -0.9199829L595.32 -0.9199829L8.871E-06 -0.9199829z" /></clipPath><clipPath id="12"><path d="M8.871E-06 841L595.32 841L595.32 841L595.32 -0.9199829L595.32 -0.9199829L8.871E-06 -0.9199829z" /></clipPath><clipPath id="13"><path d="M8.871E-06 841L595.32 841L595.32 841L595.32 -0.9199829L595.32 -0.9199829L8.871E-06 -0.9199829z" /></clipPath><clipPath id="14"><path d="M8.871E-06 841L595.32 841L595.32 841L595.32 -0.9199829L595.32 -0.9199829L8.871E-06 -0.9199829z" /></clipPath><clipPath id="15"><path d="M8.871E-06 841L595.32 841L595.32 841L595.32 -0.9199829L595.32 -0.9199829L8.871E-06 -0.9199829z" /></clipPath><clipPath id="16"><path d="M8.871E-06 841L595.32 841L595.32 841L595.32 -0.9199829L595.32 -0.9199829L8.871E-06 -0.9199829z" /></clipPath><clipPath id="17"><path d="M8.871E-06 841L595.32 841L595.32 841L595.32 -0.9199829L595.32 -0.9199829L8.871E-06 -0.9199829z" /></clipPath><clipPath id="18"><path d="M8.871E-06 841L595.32 841L595.32 841L595.32 -0.9199829L595.32 -0.9199829L8.871E-06 -0.9199829z" /></clipPath><clipPath id="19"><path d="M8.871E-06 841L595.32 841L595.32 841L595.32 -0.9199829L595.32 -0.9199829L8.871E-06 -0.9199829z" /></clipPath><clipPath id="20"><path d="M8.871E-06 841L595.32 841L595.32 841L595.32 -0.9199829L595.32 -0.9199829L8.871E-06 -0.9199829z" /></clipPath><clipPath id="21"><path d="M8.871E-06 841L595.32 841L595.32 841L595.32 -0.9199829L595.32 -0.9199829L8.871E-06 -0.9199829z" /></clipPath><clipPath id="22"><path d="M8.871E-06 841L595.32 841L595.32 841L595.32 -0.9199829L595.32 -0.9199829L8.871E-06 -0.9199829z" /></clipPath><clipPath id="23"><path d="M8.871E-06 841L595.32 841L595.32 841L595.32 -0.9199829L595.32 -0.9199829L8.871E-06 -0.9199829z" /></clipPath><clipPath id="24"><path d="M8.871E-06 841L595.32 841L595.32 841L595.32 -0.9199829L595.32 -0.9199829L8.871E-06 -0.9199829z" /></clipPath><clipPath id="25"><path d="M8.871E-06 841L595.32 841L595.32 841L595.32 -0.9199829L595.32 -0.9199829L8.871E-06 -0.9199829z" /></clipPath><clipPath id="26"><path d="M8.871E-06 841L595.32 841L595.32 841L595.32 -0.9199829L595.32 -0.9199829L8.871E-06 -0.9199829z" /></clipPath><clipPath id="27"><path d="M8.871E-06 841L595.32 841L595.32 841L595.32 -0.9199829L595.32 -0.9199829L8.871E-06 -0.9199829z" /></clipPath><clipPath id="28"><path d="M8.871E-06 841L595.32 841L595.32 841L595.32 -0.9199829L595.32 -0.9199829L8.871E-06 -0.9199829z" /></clipPath><clipPath id="29"><path d="M8.871E-06 841L595.32 841L595.32 841L595.32 -0.9199829L595.32 -0.9199829L8.871E-06 -0.9199829z" /></clipPath><clipPath id="30"><path d="M8.871E-06 841L595.32 841L595.32 841L595.32 -0.9199829L595.32 -0.9199829L8.871E-06 -0.9199829z" /></clipPath><clipPath id="31"><path d="M8.871E-06 841L595.32 841L595.32 841L595.32 -0.9199829L595.32 -0.9199829L8.871E-06 -0.9199829z" /></clipPath><clipPath id="32"><path d="M8.871E-06 841L595.32 841L595.32 841L595.32 -0.9199829L595.32 -0.9199829L8.871E-06 -0.9199829z" /></clipPath><clipPath id="33"><path d="M8.871E-06 841L595.32 841L595.32 841L595.32 -0.9199829L595.32 -0.9199829L8.871E-06 -0.9199829z" /></clipPath><clipPath id="34"><path d="M8.871E-06 841L595.32 841L595.32 841L595.32 -0.9199829L595.32 -0.9199829L8.871E-06 -0.9199829z" /></clipPath><clipPath id="35"><path d="M8.871E-06 841L595.32 841L595.32 841L595.32 -0.9199829L595.32 -0.9199829L8.871E-06 -0.9199829z" /></clipPath><clipPath id="36"><path d="M8.871E-06 841L595.32 841L595.32 841L595.32 -0.9199829L595.32 -0.9199829L8.871E-06 -0.9199829z" /></clipPath><clipPath id="37"><path d="M8.871E-06 841L595.32 841L595.32 841L595.32 -0.9199829L595.32 -0.9199829L8.871E-06 -0.9199829z" /></clipPath><clipPath id="38"><path d="M8.871E-06 841L595.32 841L595.32 841L595.32 -0.9199829L595.32 -0.9199829L8.871E-06 -0.9199829z" /></clipPath><clipPath id="39"><path d="M8.871E-06 841L595.32 841L595.32 841L595.32 -0.9199829L595.32 -0.9199829L8.871E-06 -0.9199829z" /></clipPath><clipPath id="40"><path d="M8.871E-06 841L595.32 841L595.32 841L595.32 -0.9199829L595.32 -0.9199829L8.871E-06 -0.9199829z" /></clipPath><clipPath id="41"><path d="M8.871E-06 841L595.32 841L595.32 841L595.32 -0.9199829L595.32 -0.9199829L8.871E-06 -0.9199829z" /></clipPath><clipPath id="42"><path d="M8.871E-06 841L595.32 841L595.32 841L595.32 -0.9199829L595.32 -0.9199829L8.871E-06 -0.9199829z" /></clipPath><clipPath id="43"><path d="M8.871E-06 841L595.32 841L595.32 841L595.32 -0.9199829L595.32 -0.9199829L8.871E-06 -0.9199829z" /></clipPath><clipPath id="44"><path d="M8.871E-06 841L595.32 841L595.32 841L595.32 -0.9199829L595.32 -0.9199829L8.871E-06 -0.9199829z" /></clipPath><clipPath id="45"><path d="M8.871E-06 841L595.32 841L595.32 841L595.32 -0.9199829L595.32 -0.9199829L8.871E-06 -0.9199829z" /></clipPath><clipPath id="46"><path d="M8.871E-06 841L595.32 841L595.32 841L595.32 -0.9199829L595.32 -0.9199829L8.871E-06 -0.9199829z" /></clipPath><clipPath id="47"><path d="M8.871E-06 841L595.32 841L595.32 841L595.32 -0.9199829L595.32 -0.9199829L8.871E-06 -0.9199829z" /></clipPath><clipPath id="48"><path d="M8.871E-06 841L595.32 841L595.32 841L595.32 -0.9199829L595.32 -0.9199829L8.871E-06 -0.9199829z" /></clipPath><clipPath id="49"><path d="M8.871E-06 841L595.32 841L595.32 841L595.32 -0.9199829L595.32 -0.9199829L8.871E-06 -0.9199829z" /></clipPath><clipPath id="50"><path d="M8.871E-06 841L595.32 841L595.32 841L595.32 -0.9199829L595.32 -0.9199829L8.871E-06 -0.9199829z" /></clipPath><clipPath id="51"><path d="M81 261.58L280.5 261.58L280.5 261.58L280.5 62.08002L280.5 62.08002L81 62.08002z" /></clipPath><clipPath id="52"><path d="M333.91 218.34L540.21 218.34L540.21 218.34L540.21 94.74005L540.21 94.74005L333.91 94.74005z" /></clipPath><clipPath id="53"><path d="M333.91 218.34L540.21 218.34L540.21 218.34L540.21 94.74005L540.21 94.74005L333.91 94.74005z" /></clipPath><clipPath id="54"><path d="M333.91 218.34L540.21 218.34L540.21 218.34L540.21 94.74005L540.21 94.74005L333.91 94.74005z" /></clipPath><clipPath id="55"><path d="M333.91 218.34L540.21 218.34L540.21 218.34L540.21 94.74005L540.21 94.74005L333.91 94.74005z" /></clipPath><clipPath id="56"><path d="M333.91 218.34L540.21 218.34L540.21 218.34L540.21 94.74005L540.21 94.74005L333.91 94.74005z" /></clipPath><clipPath id="57"><path d="M333.91 218.34L540.21 218.34L540.21 218.34L540.21 94.74005L540.21 94.74005L333.91 94.74005z" /></clipPath><clipPath id="58"><path d="M333.91 218.34L540.21 218.34L540.21 218.34L540.21 94.74005L540.21 94.74005L333.91 94.74005z" /></clipPath><clipPath id="59"><path d="M333.91 218.34L540.21 218.34L540.21 218.34L540.21 94.74005L540.21 94.74005L333.91 94.74005z" /></clipPath><clipPath id="60"><path d="M333.91 218.34L540.21 218.34L540.21 218.34L540.21 94.74005L540.21 94.74005L333.91 94.74005z" /></clipPath><clipPath id="61"><path d="M333.91 218.34L540.21 218.34L540.21 218.34L540.21 94.74005L540.21 94.74005L333.91 94.74005z" /></clipPath><clipPath id="62"><path d="M333.91 218.34L540.21 218.34L540.21 218.34L540.21 94.74005L540.21 94.74005L333.91 94.74005z" /></clipPath><clipPath id="63"><path d="M333.91 218.34L540.21 218.34L540.21 218.34L540.21 94.74005L540.21 94.74005L333.91 94.74005z" /></clipPath><clipPath id="64"><path d="M333.91 218.34L540.21 218.34L540.21 218.34L540.21 94.74005L540.21 94.74005L333.91 94.74005z" /></clipPath><clipPath id="65"><path d="M333.91 218.34L540.21 218.34L540.21 218.34L540.21 94.74005L540.21 94.74005L333.91 94.74005z" /></clipPath><clipPath id="66"><path d="M333.91 218.34L540.21 218.34L540.21 218.34L540.21 94.74005L540.21 94.74005L333.91 94.74005z" /></clipPath><clipPath id="67"><path d="M333.91 218.34L540.21 218.34L540.21 218.34L540.21 94.74005L540.21 94.74005L333.91 94.74005z" /></clipPath><clipPath id="68"><path d="M333.91 218.34L540.21 218.34L540.21 218.34L540.21 94.74005L540.21 94.74005L333.91 94.74005z" /></clipPath><clipPath id="69"><path d="M333.91 218.34L540.21 218.34L540.21 218.34L540.21 94.74005L540.21 94.74005L333.91 94.74005z" /></clipPath><clipPath id="70"><path d="M69.5 480.98L245 480.98L245 480.98L245 305.48L245 305.48L69.5 305.48z" /></clipPath><clipPath id="71"><path d="M323 476.98L481.5 476.98L481.5 476.98L481.5 318.48L481.5 318.48L323 318.48z" /></clipPath><clipPath id="72"><path d="M48.84 551.63L306.65 551.63L306.65 551.63L306.65 492.47L306.65 492.47L48.84 492.47z" /></clipPath><clipPath id="73"><path d="M48.84 551.63L306.65 551.63L306.65 551.63L306.65 492.47L306.65 492.47L48.84 492.47z" /></clipPath><clipPath id="74"><path d="M48.84 551.63L306.65 551.63L306.65 551.63L306.65 492.47L306.65 492.47L48.84 492.47z" /></clipPath><clipPath id="75"><path d="M48.84 551.63L306.65 551.63L306.65 551.63L306.65 492.47L306.65 492.47L48.84 492.47z" /></clipPath><clipPath id="76"><path d="M48.84 551.63L306.65 551.63L306.65 551.63L306.65 492.47L306.65 492.47L48.84 492.47z" /></clipPath><clipPath id="77"><path d="M48.84 551.63L306.65 551.63L306.65 551.63L306.65 492.47L306.65 492.47L48.84 492.47z" /></clipPath><clipPath id="78"><path d="M320.83 554.63L554.73 554.63L554.73 554.63L554.73 492.95L554.73 492.95L320.83 492.95z" /></clipPath><clipPath id="79"><path d="M320.83 554.63L554.73 554.63L554.73 554.63L554.73 492.95L554.73 492.95L320.83 492.95z" /></clipPath><clipPath id="80"><path d="M320.83 554.63L554.73 554.63L554.73 554.63L554.73 492.95L554.73 492.95L320.83 492.95z" /></clipPath><clipPath id="81"><path d="M320.83 554.63L554.73 554.63L554.73 554.63L554.73 492.95L554.73 492.95L320.83 492.95z" /></clipPath><clipPath id="82"><path d="M320.83 554.63L554.73 554.63L554.73 554.63L554.73 492.95L554.73 492.95L320.83 492.95z" /></clipPath><clipPath id="83"><path d="M320.83 554.63L554.73 554.63L554.73 554.63L554.73 492.95L554.73 492.95L320.83 492.95z" /></clipPath><clipPath id="84"><path d="M320.83 554.63L554.73 554.63L554.73 554.63L554.73 492.95L554.73 492.95L320.83 492.95z" /></clipPath><clipPath id="85"><path d="M320.83 554.63L554.73 554.63L554.73 554.63L554.73 492.95L554.73 492.95L320.83 492.95z" /></clipPath><clipPath id="86"><path d="M320.83 554.63L554.73 554.63L554.73 554.63L554.73 492.95L554.73 492.95L320.83 492.95z" /></clipPath><clipPath id="87"><path d="M320.83 554.63L554.73 554.63L554.73 554.63L554.73 492.95L554.73 492.95L320.83 492.95z" /></clipPath><clipPath id="88"><path d="M77.85 731.88L241.85 731.88L241.85 731.88L241.85 567.88L241.85 567.88L77.85 567.88z" /></clipPath><clipPath id="89"><path d="M332.35 730.88L499.85 730.88L499.85 730.88L499.85 563.38L499.85 563.38L332.35 563.38z" /></clipPath><clipPath id="90"><path d="M46.2 820.6L311.11 820.6L311.11 820.6L311.11 741.496L311.11 741.496L46.2 741.496z" /></clipPath><clipPath id="91"><path d="M46.2 820.6L311.11 820.6L311.11 820.6L311.11 741.496L311.11 741.496L46.2 741.496z" /></clipPath><clipPath id="92"><path d="M46.2 820.6L311.11 820.6L311.11 820.6L311.11 741.496L311.11 741.496L46.2 741.496z" /></clipPath><clipPath id="93"><path d="M46.2 820.6L311.11 820.6L311.11 820.6L311.11 741.496L311.11 741.496L46.2 741.496z" /></clipPath><clipPath id="94"><path d="M46.2 820.6L311.11 820.6L311.11 820.6L311.11 741.496L311.11 741.496L46.2 741.496z" /></clipPath><clipPath id="95"><path d="M46.2 820.6L311.11 820.6L311.11 820.6L311.11 741.496L311.11 741.496L46.2 741.496z" /></clipPath><clipPath id="96"><path d="M46.2 820.6L311.11 820.6L311.11 820.6L311.11 741.496L311.11 741.496L46.2 741.496z" /></clipPath><clipPath id="97"><path d="M46.2 820.6L311.11 820.6L311.11 820.6L311.11 741.496L311.11 741.496L46.2 741.496z" /></clipPath><clipPath id="98"><path d="M316.87 817.24L581.76 817.24L581.76 817.24L581.76 741.616L581.76 741.616L316.87 741.616z" /></clipPath><clipPath id="99"><path d="M316.87 817.24L581.76 817.24L581.76 817.24L581.76 741.616L581.76 741.616L316.87 741.616z" /></clipPath><clipPath id="100"><path d="M316.87 817.24L581.76 817.24L581.76 817.24L581.76 741.616L581.76 741.616L316.87 741.616z" /></clipPath><clipPath id="101"><path d="M316.87 817.24L581.76 817.24L581.76 817.24L581.76 741.616L581.76 741.616L316.87 741.616z" /></clipPath><clipPath id="102"><path d="M316.87 817.24L581.76 817.24L581.76 817.24L581.76 741.616L581.76 741.616L316.87 741.616z" /></clipPath><clipPath id="103"><path d="M316.87 817.24L581.76 817.24L581.76 817.24L581.76 741.616L581.76 741.616L316.87 741.616z" /></clipPath><clipPath id="104"><path d="M316.87 817.24L581.76 817.24L581.76 817.24L581.76 741.616L581.76 741.616L316.87 741.616z" /></clipPath><clipPath id="105"><path d="M316.87 817.24L581.76 817.24L581.76 817.24L581.76 741.616L581.76 741.616L316.87 741.616z" /></clipPath></defs><g transform="matrix(1.333333 0 0 1.333333 0 0)"><g><g clip-path="url(#1)"><g clip-path="url(#2)"></g><g clip-path="url(#3)"></g><g clip-path="url(#4)"></g><g clip-path="url(#5)"></g><g clip-path="url(#6)"></g><g clip-path="url(#7)"></g><g clip-path="url(#8)"></g><g clip-path="url(#9)"></g><g clip-path="url(#10)"></g><g clip-path="url(#11)"></g><g clip-path="url(#12)"></g><g clip-path="url(#13)"></g><g clip-path="url(#14)"></g><g clip-path="url(#15)"></g><g clip-path="url(#16)"></g><g clip-path="url(#17)"></g><g clip-path="url(#18)"></g><g clip-path="url(#19)"></g><g clip-path="url(#20)"></g><g clip-path="url(#21)"></g><g clip-path="url(#22)"></g><g clip-path="url(#23)"></g><g clip-path="url(#24)"></g><g clip-path="url(#25)"></g><g clip-path="url(#26)"></g><g clip-path="url(#27)"></g><g clip-path="url(#28)"></g><g clip-path="url(#29)"></g><g clip-path="url(#30)"></g><g clip-path="url(#31)"></g><g clip-path="url(#32)"></g><g clip-path="url(#33)"></g><g clip-path="url(#34)"></g><g clip-path="url(#35)"></g><g clip-path="url(#36)"></g><g clip-path="url(#37)"></g><g clip-path="url(#38)"></g><g clip-path="url(#39)"></g><g clip-path="url(#40)"></g><g clip-path="url(#41)"></g><g clip-path="url(#42)"></g><g clip-path="url(#43)"></g><g clip-path="url(#44)"></g><g clip-path="url(#45)"></g><g clip-path="url(#46)"></g><g clip-path="url(#47)"></g><g clip-path="url(#48)"></g><g clip-path="url(#49)"></g><g clip-path="url(#50)"></g><g clip-path="url(#51)"><g transform="matrix(0.415625 0 0 0.415625 81 62.08002)"><g transform="matrix(1 0 0 1 0 0)"><image x="0" y="0" xlink:href="img_06.png" width="480" height="480" /></g></g></g><path transform="matrix(1 0 0 -1 0 841)" d="M333.5 618.72L540.5 618.72L540.5 618.72L540.5 750.22L540.5 750.22L333.5 750.22z" stroke="none" fill="#FFFFFF" fill-rule="evenodd" /><g clip-path="url(#52)"><g clip-path="url(#53)"></g><g clip-path="url(#54)"></g><g clip-path="url(#55)"></g><g clip-path="url(#56)"></g><g clip-path="url(#57)"></g><g clip-path="url(#58)"></g><g clip-path="url(#59)"></g><g clip-path="url(#60)"></g><g clip-path="url(#61)"></g><g clip-path="url(#62)"></g><g clip-path="url(#63)"></g><g clip-path="url(#64)"></g><g clip-path="url(#65)"></g><g clip-path="url(#66)"></g><g clip-path="url(#67)"></g><g clip-path="url(#68)"></g><g clip-path="url(#69)"></g></g><g clip-path="url(#70)"><g transform="matrix(0.365625 0 0 0.365625 69.5 305.48)"><g transform="matrix(1 0 0 1 0 0)"><image x="0" y="0" xlink:href="img_07.png" width="480" height="480" /></g></g></g><g clip-path="url(#71)"><g transform="matrix(0.3302084 0 0 0.3302084 323 318.48)"><g transform="matrix(1 0 0 1 0 0)"><image x="0" y="0" xlink:href="img_08.png" width="480" height="480" /></g></g></g><path transform="matrix(1 0 0 -1 0 841)" d="M48.5 285.52L307 285.52L307 285.52L307 352.52L307 352.52L48.5 352.52z" stroke="none" fill="#FFFFFF" fill-rule="evenodd" /><g clip-path="url(#72)"><g clip-path="url(#73)"></g><g clip-path="url(#74)"></g><g clip-path="url(#75)"></g><g clip-path="url(#76)"></g><g clip-path="url(#77)"></g></g><path transform="matrix(1 0 0 -1 0 841)" d="M320.45 282.52L554.95 282.52L554.95 282.52L554.95 352.02L554.95 352.02L320.45 352.02z" stroke="none" fill="#FFFFFF" fill-rule="evenodd" /><g clip-path="url(#78)"><g clip-path="url(#79)"></g><g clip-path="url(#80)"></g><g clip-path="url(#81)"></g><g clip-path="url(#82)"></g><g clip-path="url(#83)"></g><g clip-path="url(#84)"></g><g clip-path="url(#85)"></g><g clip-path="url(#86)"></g><g clip-path="url(#87)"></g></g><g clip-path="url(#88)"><g transform="matrix(0.3416667 0 0 0.3416667 77.85 567.88)"><g transform="matrix(1 0 0 1 0 0)"><image x="0" y="0" xlink:href="img_09.png" width="480" height="480" /></g></g></g><g clip-path="url(#89)"><g transform="matrix(0.3489583 0 0 0.3489583 332.35 563.38)"><g transform="matrix(1 0 0 1 0 0)"><image x="0" y="0" xlink:href="img_10.png" width="480" height="480" /></g></g></g><path transform="matrix(1 0 0 -1 0 841)" d="M45.85 16.525L311.35 16.525L311.35 16.525L311.35 103.525L311.35 103.525L45.85 103.525z" stroke="none" fill="#FFFFFF" fill-rule="evenodd" /><g clip-path="url(#90)"><g clip-path="url(#91)"></g><g clip-path="url(#92)"></g><g clip-path="url(#93)"></g><g clip-path="url(#94)"></g><g clip-path="url(#95)"></g><g clip-path="url(#96)"></g><g clip-path="url(#97)"></g></g><path transform="matrix(1 0 0 -1 0 841)" d="M316.5 19.926L582 19.926L582 19.926L582 103.426L582 103.426L316.5 103.426z" stroke="none" fill="#FFFFFF" fill-rule="evenodd" /><g clip-path="url(#98)"><g clip-path="url(#99)"></g><g clip-path="url(#100)"></g><g clip-path="url(#101)"></g><g clip-path="url(#102)"></g><g clip-path="url(#103)"></g><g clip-path="url(#104)"></g><g clip-path="url(#105)"></g></g></g></g></g></svg>